<svg xmlns="http://www.w3.org/2000/svg" width="18.038" height="18.039" viewBox="0 0 18.038 18.039">
  <path id="Icon_metro-copyright" data-name="Icon metro-copyright" d="M18.275,15.517V16.8a1.487,1.487,0,0,1-.429,1.045,2.848,2.848,0,0,1-1.1.71,8.072,8.072,0,0,1-1.386.382,7.709,7.709,0,0,1-1.38.129,5.429,5.429,0,0,1-4.022-1.632A5.547,5.547,0,0,1,8.34,13.367a5.458,5.458,0,0,1,5.578-5.578,8.288,8.288,0,0,1,.887.053,7.578,7.578,0,0,1,1.092.211,5.6,5.6,0,0,1,1.086.4,2.339,2.339,0,0,1,.81.664,1.509,1.509,0,0,1,.329.951v1.28a.166.166,0,0,1-.188.188H16.549a.166.166,0,0,1-.188-.188v-.822q0-.5-.769-.793a4.571,4.571,0,0,0-1.615-.288,3.568,3.568,0,0,0-2.683,1.075,3.844,3.844,0,0,0-1.039,2.789,4.137,4.137,0,0,0,1.075,2.93A3.578,3.578,0,0,0,14.071,17.4a4.976,4.976,0,0,0,1.621-.282q.822-.282.822-.775v-.822a.183.183,0,0,1,.053-.135.169.169,0,0,1,.123-.053h1.4a.189.189,0,0,1,.129.053.174.174,0,0,1,.059.135ZM13.789,5.91a7.306,7.306,0,0,0-2.918.6,7.412,7.412,0,0,0-4,4,7.409,7.409,0,0,0,0,5.837,7.412,7.412,0,0,0,4,4,7.409,7.409,0,0,0,5.837,0,7.412,7.412,0,0,0,4-4,7.409,7.409,0,0,0,0-5.837,7.412,7.412,0,0,0-4-4,7.306,7.306,0,0,0-2.918-.6Zm9.019,7.516a8.823,8.823,0,0,1-1.21,4.527,8.979,8.979,0,0,1-3.282,3.282,9.077,9.077,0,0,1-9.054,0,8.979,8.979,0,0,1-3.282-3.282,8.823,8.823,0,0,1-1.21-4.527A8.823,8.823,0,0,1,5.979,8.9,8.979,8.979,0,0,1,9.262,5.617a9.077,9.077,0,0,1,9.054,0A8.979,8.979,0,0,1,21.6,8.9,8.823,8.823,0,0,1,22.808,13.426Z" transform="translate(-4.77 -4.407)" fill="#d7e2e2"/>
</svg>
